<?xml version="1.0" encoding="utf-8"?><svg xml:space="preserve" viewBox="0 0 100 100" y="0" x="0" xmlns="http://www.w3.org/2000/svg" id="Layer_1" version="1.1" width="128px" height="128px" xmlns:xlink="http://www.w3.org/1999/xlink" style="width:100%;height:100%;background-size:initial;background-repeat-y:initial;background-repeat-x:initial;background-position-y:initial;background-position-x:initial;background-origin:initial;background-image:initial;background-color:rgb(255, 255, 255);background-clip:initial;background-attachment:initial;animation-play-state:paused" ><g class="ldl-scale" style="transform-origin:50% 50%;transform:rotate(0deg) scale(0.8, 0.8);animation-play-state:paused" ><path fill="#f7b26a" d="M82.4 64.3H17.6c-5.6 0-10.1-4.5-10.1-10.1v-1.3c0-9.5 7.7-17.2 17.2-17.2h50.6c9.5 0 17.2 7.7 17.2 17.2v1.3c0 5.6-4.5 10.1-10.1 10.1z" style="fill:rgb(247, 178, 106);animation-play-state:paused" ></path>
<path fill="#f4e6c8" d="M22.6 49.8c1.6-2.4 2.9-4.8 4.3-6.9 1.4-2.2 2.8-4.2 4.4-5.9.4-.4.8-.9 1.2-1.3H26c-1.2 1.7-2.1 3.6-2.7 5.6-.8 2.7-1.1 5.6-.7 8.5z" style="fill:rgb(244, 230, 200);animation-play-state:paused" ></path>
<path fill="#f4e6c8" d="M37.1 49.8c1.6-2.4 2.9-4.8 4.3-6.9 1.4-2.2 2.8-4.2 4.4-5.9.4-.4.8-.9 1.2-1.3h-6.5c-1.2 1.7-2.1 3.6-2.7 5.6-.8 2.7-1.1 5.6-.7 8.5z" style="fill:rgb(244, 230, 200);animation-play-state:paused" ></path>
<path fill="#f4e6c8" d="M51.6 49.8c1.6-2.4 2.9-4.8 4.3-6.9 1.4-2.2 2.8-4.2 4.4-5.9.4-.4.8-.9 1.2-1.3H55c-1.2 1.7-2.1 3.6-2.7 5.6-.8 2.7-1.1 5.6-.7 8.5z" style="fill:rgb(244, 230, 200);animation-play-state:paused" ></path>
<path fill="#f4e6c8" d="M66.1 49.8c1.6-2.4 2.9-4.8 4.3-6.9 1.4-2.2 2.8-4.2 4.4-5.9l1.2-1.2h-6.5c-1.2 1.7-2.1 3.6-2.7 5.6-.8 2.6-1.2 5.5-.7 8.4z" style="fill:rgb(244, 230, 200);animation-play-state:paused" ></path>
<metadata xmlns:d="https://loading.io/stock/" style="animation-play-state:paused" ><d:name style="animation-play-state:paused" >bread</d:name>
<d:tags style="animation-play-state:paused" >bread,baguette,french bread,french toast,ciabatta,food,eat</d:tags>
<d:license style="animation-play-state:paused" >by</d:license>
<d:slug style="animation-play-state:paused" >5ltdsq</d:slug></metadata></g><!-- generated by https://loading.io/ --></svg>